<svg xmlns="http://www.w3.org/2000/svg" viewBox="0 0 64 64" width="64" height="64">
  <!-- Sem cantos próprios: o iOS aplica a máscara dele. Transparência nos
       cantos viraria preto, então o fundo é cheio. -->
  <rect width="64" height="64" fill="#0E6E5B"/>
  <g transform="translate(14 14) scale(1.5)"
     fill="none" stroke="#FFFFFF" stroke-width="2.25"
     stroke-linecap="round" stroke-linejoin="round">
    <path d="M15 21v-8a1 1 0 0 0-1-1h-4a1 1 0 0 0-1 1v8"/>
    <path d="M3 10a2 2 0 0 1 .709-1.528l7-5.999a2 2 0 0 1 2.582 0l7 5.999A2 2 0 0 1 21 10v9a2 2 0 0 1-2 2H5a2 2 0 0 1-2-2z"/>
  </g>
</svg>
